<?xml version="1.0" encoding="UTF-8"?>
<svg width="48px" height="56px" viewBox="0 0 48 56" version="1.1" xmlns="http://www.w3.org/2000/svg" xmlns:xlink="http://www.w3.org/1999/xlink">
    <!-- Generator: Sketch 52.2 (67145) - http://www.bohemiancoding.com/sketch -->
    <title>Combined Shape</title>
    <desc>Created with Sketch.</desc>
    <g id="Page-1" stroke="none" stroke-width="1" fill="none" fill-rule="evenodd">
        <path d="M3.07198038,9.41318012 L22.6638675,0.368334323 C23.7342409,-0.125817278 24.9680933,-0.122617745 26.0358896,0.377078395 L45.1002838,9.29864344 C46.3113583,9.86538947 47.1591545,10.999791 47.3596427,12.3217997 C48.729177,21.3524343 47.9019405,29.7614965 44.8779332,37.5489865 C41.6168336,45.9470416 34.7748261,52.0581264 24.3519107,55.8822408 C14.0959889,53.1828659 7.11033259,46.7647238 3.39494192,36.6278143 C-0.0083981973,27.3422899 -0.852918999,19.1669077 0.861379521,12.1016678 C1.14928274,10.9150762 1.96339697,9.92497186 3.07198038,9.41318012 Z M28.9156462,15.1800068 L23.0827932,21.2386709 L20.854617,19.0332381 C20.3589103,18.5425912 19.5510557,18.5385205 19.0502232,19.024146 C18.5493908,19.5097715 18.5452356,20.3011966 19.0409423,20.7918436 L22.1980866,23.9167624 C22.7058916,24.4193841 23.5378396,24.4095606 24.0331311,23.8950944 L30.7720605,16.8952764 C31.255552,16.3930672 31.2319267,15.6019701 30.7192921,15.1283115 C30.2066574,14.6546528 29.3991376,14.6777976 28.9156462,15.1800068 Z M33,23.6214815 C33,23.3576433 32.8957323,23.1044958 32.7099141,22.9171933 C32.3209464,22.5251185 31.6877865,22.5225998 31.2957117,22.9115674 L28.1498784,26.0324711 C27.9606187,26.220231 27.8541667,26.47579 27.8541667,26.7423852 L27.8541667,38.2575858 C27.8541667,38.4974094 27.940355,38.7292462 28.0970179,38.9108283 C28.4577938,39.32899 29.0892474,39.3755104 29.5074092,39.0147346 L32.6532425,36.3006153 C32.8734182,36.1106552 33,35.8342624 33,35.5434666 L33,23.6214815 Z M23.8291243,30.258143 C23.4679132,30.5615569 22.9437886,30.5712756 22.5715775,30.2814613 L21.969474,29.8126462 C21.8345581,29.7075968 21.6684541,29.650556 21.4974638,29.650556 C21.073145,29.650556 20.7291667,29.9945343 20.7291667,30.4188531 L20.7291667,38.2545943 C20.7291667,38.4954463 20.8160943,38.7282065 20.9739732,38.9100964 C21.335997,39.3271782 21.9675869,39.3718115 22.3846687,39.0097878 L25.530502,36.2792289 C25.7493213,36.0892955 25.875,35.813788 25.875,35.5240354 L25.875,30.2799879 C25.875,30.0891762 25.8077195,29.9044748 25.6849918,29.7583688 C25.3969095,29.4154099 24.8853496,29.3709236 24.5423907,29.6590059 L23.8291243,30.258143 Z M14,23.6156617 L14,38.3116053 C14,38.8638901 14.4477153,39.3116053 15,39.3116053 C15.227199,39.3116053 15.4476254,39.2342379 15.6249853,39.0922419 L18.7708186,36.573657 C19.0078615,36.3838781 19.1458333,36.0966738 19.1458333,35.7930204 L19.1458333,26.7174978 C19.1458333,26.4498403 19.0385337,26.1933541 18.8479431,26.0054291 L15.7021098,22.903593 C15.3088451,22.5158285 14.6756958,22.5202872 14.2879313,22.9135519 C14.1034329,23.1006672 14,23.3528846 14,23.6156617 Z" id="Combined-Shape" fill="#4A90E2"></path>
    </g>
</svg>