<?xml version="1.0" encoding="UTF-8"?>
<svg width="800px" height="800px" viewBox="0 0 800 800" version="1.1" xmlns="http://www.w3.org/2000/svg" xmlns:xlink="http://www.w3.org/1999/xlink">
    <title>Artboard</title>
    <g id="Artboard" stroke="none" stroke-width="1" fill="none" fill-rule="evenodd">
        <rect id="Rectangle" fill="#1B1B21" x="0" y="0" width="800" height="800" rx="158"></rect>
        <g id="cube_icon" transform="translate(169.000000, 136.000000)" fill="#FFFFFF" fill-rule="nonzero">
            <path d="M461.138979,154.349993 L461.075979,137.339994 L461.075979,137.339994 C461.04747,133.299868 458.871573,129.580043 455.363979,127.574994 L440.59048,119.174995 L429.292481,136.216494 L440.71648,155.819993 L461.138979,154.349993 Z" id="Path"></path>
            <polygon id="Path" points="52.0064976 175.318492 83.5274962 193.346991 94.8149957 173.648992 63.2939971 155.630993"></polygon>
            <polygon id="Path" points="272.359488 227.41949 240.974989 245.678989 252.409489 265.271988 283.793987 247.022989"></polygon>
            <rect id="Rectangle" transform="translate(136.443305, 210.513403) rotate(-60.180000) translate(-136.443305, -210.513403) " x="125.092805" y="192.358904" width="22.700999" height="36.3089984"></rect>
            <polygon id="Path" points="189.356991 227.72399 178.069492 247.411489 209.59049 265.429488 220.87799 245.741989"></polygon>
            <polygon id="Path" points="335.128485 190.921491 303.743986 209.170491 315.178486 228.77399 346.562984 210.52499"></polygon>
            <polygon id="Path" points="409.331981 174.016492 397.897482 154.412993 366.512983 172.661992 377.947483 192.265491"></polygon>
            <rect id="Rectangle" transform="translate(174.749744, 43.974051) rotate(-30.230000) translate(-174.749744, -43.974051) " x="159.115245" y="32.628802" width="31.2689986" height="22.690499"></rect>
            <rect id="Rectangle" transform="translate(120.681070, 75.423958) rotate(-30.230000) translate(-120.681070, -75.423958) " x="105.04657" y="64.0787081" width="31.2689986" height="22.690499"></rect>
            <rect id="Rectangle" transform="translate(66.628182, 106.872436) rotate(-30.230000) translate(-66.628182, -106.872436) " x="50.9936824" y="95.5271862" width="31.2689986" height="22.690499"></rect>
            <path d="M230.06549,24.9374989 L239.168989,30.1874986 L250.445989,10.4999995 L235.661989,2.0999999 C232.146304,0.0727161337 227.816675,0.0727161337 224.30099,2.0999999 L209.60099,10.6679995 L221.02499,30.2084986 L230.06549,24.9374989 Z" id="Path"></path>
            <rect id="Rectangle" transform="translate(394.216132, 105.687322) rotate(-60.240000) translate(-394.216132, -105.687322) " x="382.865633" y="90.0423225" width="22.700999" height="31.2899986"></rect>
            <polygon id="Path" points="359.089484 72.5444967 331.925985 57.0149974 320.648985 76.7129965 347.812484 92.2424958"></polygon>
            <rect id="Rectangle" transform="translate(285.542348, 43.571798) rotate(-60.250000) translate(-285.542348, -43.571798) " x="274.191848" y="27.926799" width="22.700999" height="31.2899986"></rect>
            <rect id="Rectangle" transform="translate(450.423455, 326.194506) rotate(-0.230000) translate(-450.423455, -326.194506) " x="439.067706" y="310.570506" width="22.711499" height="31.2479986"></rect>
            <rect id="Rectangle" transform="translate(450.168174, 263.769251) rotate(-0.220000) translate(-450.168174, -263.769251) " x="438.812424" y="248.145252" width="22.711499" height="31.2479986"></rect>
            <rect id="Rectangle" transform="translate(449.938709, 201.264102) rotate(-0.220000) translate(-449.938709, -201.264102) " x="438.582959" y="185.640102" width="22.711499" height="31.2479986"></rect>
            <path d="M439.22548,373.127983 L439.22548,383.627983 L430.16398,388.877982 L441.64048,408.449981 L456.340479,399.881982 C459.847257,397.849875 461.998364,394.096453 461.979109,390.043482 L461.915979,373.033483 L439.22548,373.127983 Z" id="Path"></path>
            <polygon id="Path" points="376.109983 420.325481 387.544482 439.93948 414.592481 424.199981 403.157982 404.596482"></polygon>
            <polygon id="Path" points="322.013985 451.793979 333.448485 471.397479 360.496484 455.657979 349.061984 436.05448"></polygon>
            <polygon id="Path" points="267.917988 483.262478 279.352487 502.865977 306.400486 487.126478 294.965987 467.522979"></polygon>
            <path d="M221.99099,500.387977 L211.49099,518.731476 L226.25399,527.183976 C226.25399,527.183976 226.25399,527.183976 226.25399,527.183976 C229.769095,529.213423 234.099884,529.213423 237.614989,527.183976 L252.314989,518.626476 L241.646989,500.335477 L221.99099,500.387977 Z" id="Path"></path>
            <rect id="Rectangle" transform="translate(231.615738, 455.019069) rotate(-0.210000) translate(-231.615738, -455.019069) " x="220.259989" y="439.389819" width="22.711499" height="31.2584986"></rect>
            <rect id="Rectangle" transform="translate(231.160560, 345.165216) rotate(-0.210000) translate(-231.160560, -345.165216) " x="219.80481" y="329.530717" width="22.711499" height="31.2689986"></rect>
            <rect id="Rectangle" transform="translate(231.158709, 290.229588) rotate(-0.210000) translate(-231.158709, -290.229588) " x="219.80296" y="274.595089" width="22.711499" height="31.2689986"></rect>
            <rect id="Rectangle" transform="translate(231.382889, 400.094748) rotate(-0.210000) translate(-231.382889, -400.094748) " x="220.02714" y="384.465499" width="22.711499" height="31.2584986"></rect>
            <rect id="Rectangle" transform="translate(67.779512, 423.465737) rotate(-60.230000) translate(-67.779512, -423.465737) " x="56.4290125" y="407.825988" width="22.700999" height="31.2794986"></rect>
            <polygon id="Path" points="157.153493 487.672478 184.295992 503.212477 195.583491 483.535478 168.440992 467.995479"></polygon>
            <polygon id="Path" points="102.857995 456.592479 130.000494 472.132479 141.287994 452.455479 114.145495 436.92598"></polygon>
            <path d="M23.5724989,374.629483 L0.860999961,374.723983 L0.923999958,391.733982 C0.938540334,395.783402 3.11720356,399.515965 6.6359997,401.519982 L21.409499,409.982981 L32.7074985,390.316482 L23.6144989,385.066483 L23.5724989,374.629483 Z" id="Path"></path>
            <rect id="Rectangle" transform="translate(11.573088, 202.842285) rotate(-0.220000) translate(-11.573088, -202.842285) " x="0.217338871" y="187.218285" width="22.711499" height="31.2479986"></rect>
            <rect id="Rectangle" transform="translate(11.802513, 265.326434) rotate(-0.220000) translate(-11.802513, -265.326434) " x="0.446763664" y="249.702435" width="22.711499" height="31.2479986"></rect>
            <rect id="Rectangle" transform="translate(12.031978, 327.821084) rotate(-0.220000) translate(-12.031978, -327.821084) " x="0.676228775" y="312.197084" width="22.711499" height="31.2479986"></rect>
            <path d="M22.763999,153.352493 L29.5154987,141.571494 L31.7834986,140.248494 L20.3594991,120.644995 L5.65949974,129.202494 C2.16233069,131.231548 0.00703589745,134.966326 -1.8651746e-15,139.009494 L-1.8651746e-15,139.009494 L-1.8651746e-15,139.009494 L-1.8651746e-15,139.009494 L0.0629999971,155.977493 L22.774499,155.893493 L22.763999,153.352493 Z" id="Path"></path>
        </g>
    </g>
</svg>