<svg width="480" height="480" viewBox="0 0 480 480" fill="none" xmlns="http://www.w3.org/2000/svg"><circle cx="240" cy="240" r="240" fill="url(#SNX_paint0_linear)"/><mask id="mask0" style="mask-type:alpha" maskUnits="userSpaceOnUse" x="0" y="0" width="480" height="480"><circle cx="240" cy="240" r="240" fill="url(#SNX_paint1_linear)"/></mask><g mask="url(#mask0)"><path d="M160.933 180.329c-2.139-2.448-4.773-3.675-7.908-3.675H88.921c-.57 0-1.035-.18-1.386-.54-.357-.355-.535-.756-.535-1.186v-43.201c0-.431.178-.826.535-1.186.35-.361.817-.541 1.386-.541h67.739c17.093 0 31.84 6.988 44.234 20.952l16.454 20.086-32.052 39.097-24.363-29.806zm118.386-29.592C291.713 136.912 306.529 130 323.765 130h67.527c.569 0 .995.145 1.282.43.282.291.426.721.426 1.297v43.201c0 .43-.144.831-.426 1.186-.287.36-.713.54-1.282.54h-64.105c-3.134 0-5.768 1.227-7.908 3.675l-47.224 57.456 47.437 57.886c2.14 2.308 4.699 3.459 7.695 3.459h64.105c.569 0 .995.181 1.282.541.282.361.426.831.426 1.401v43.201c0 .431-.144.832-.426 1.186-.287.361-.713.541-1.282.541h-67.527c-17.236 0-31.983-6.982-44.233-20.952l-39.316-47.951-39.322 47.951C188.5 339.018 173.684 346 156.447 346H88.921c-.57 0-1-.18-1.283-.541-.287-.36-.425-.825-.425-1.407v-43.201c0-.43.138-.825.425-1.186.282-.36.714-.54 1.283-.54h64.104c2.991 0 5.625-1.221 7.908-3.675l46.368-56.59 72.018-88.123z" fill="#00D1FF"/></g><defs><linearGradient id="SNX_paint0_linear" x1="240" y1="0" x2="240" y2="701.818" gradientUnits="userSpaceOnUse"><stop stop-color="#08021E"/><stop offset="1" stop-color="#1F0777"/></linearGradient><linearGradient id="SNX_paint1_linear" x1="240" y1="0" x2="240" y2="701.818" gradientUnits="userSpaceOnUse"><stop stop-color="#08021E"/><stop offset="1" stop-color="#1F0777"/></linearGradient></defs></svg>